<svg width="30" height="30" viewBox="0 0 30 30" fill="none" xmlns="http://www.w3.org/2000/svg">
<path d="M16.6571 15L29.6565 2.00058C30.1142 1.5429 30.1142 0.800873 29.6565 0.343256C29.1989 -0.11436 28.4568 -0.114419 27.9992 0.343256L14.9997 13.3427L2.00033 0.343256C1.54266 -0.114419 0.800628 -0.114419 0.343012 0.343256C-0.114604 0.800931 -0.114663 1.54296 0.343012 2.00058L13.3424 15L0.343012 27.9995C-0.114663 28.4571 -0.114663 29.1992 0.343012 29.6568C0.57182 29.8856 0.871761 30 1.1717 30C1.47164 30 1.77152 29.8856 2.00039 29.6568L14.9997 16.6574L27.9991 29.6568C28.228 29.8856 28.5279 30 28.8278 30C29.1278 30 29.4277 29.8856 29.6565 29.6568C30.1142 29.1991 30.1142 28.4571 29.6565 27.9995L16.6571 15Z" fill="black"/>
</svg>
