<svg width="85" height="79" viewBox="0 0 85 79" fill="none" xmlns="http://www.w3.org/2000/svg">
<path d="M66.7463 21.8731C64.2847 9.61189 53.3553 0.541626 40.7291 0.541626C26.0807 0.541626 14.1666 12.4557 14.1666 27.1041C14.1666 27.7026 14.1913 28.3154 14.2445 28.9635C6.25099 29.8135 0 36.5959 0 44.8125C0 53.5994 7.15063 60.75 15.9375 60.75H33.6459C34.6234 60.75 35.4168 59.9566 35.4168 58.9791C35.4168 58.0016 34.6234 57.2082 33.6459 57.2082H15.9375C9.10214 57.2082 3.54161 51.6479 3.54161 44.8123C3.54161 37.9768 9.10197 32.4165 15.8206 32.413C15.8985 32.4271 16.1146 32.4483 16.1925 32.4483C16.6459 32.3705 17.2054 32.2358 17.5525 31.8498C17.896 31.4602 18.0519 30.9396 17.9775 30.4261C17.7934 29.1511 17.7084 28.0957 17.7084 27.104C17.7084 14.4106 28.0359 4.08307 40.7293 4.08307C52.1015 4.08307 61.8871 12.5759 63.4915 23.8384C63.6155 24.7132 64.6 25.3331 65.4855 25.3331C74.1839 25.2091 81.4584 32.4696 81.4584 41.2706C81.4584 50.0574 74.3078 57.2081 65.5209 57.2081H47.8125C46.835 57.2081 46.0416 58.0015 46.0416 58.979C46.0416 59.9565 46.835 60.7498 47.8125 60.7498H65.5209C76.2628 60.75 85 52.0128 85 41.2709C85 31.0319 77.0596 22.6134 66.7463 21.8731Z" fill="white"/>
<path d="M41.4092 39.6347C40.7433 39.3549 39.9889 39.5107 39.4789 40.0172L32.3955 47.1006C31.7049 47.7912 31.7049 48.9139 32.3955 49.6046C33.0862 50.2952 34.2089 50.2952 34.8996 49.6046L38.9583 45.5458V76.6875C38.9583 77.665 39.7517 78.4584 40.7292 78.4584C41.7067 78.4584 42.5001 77.665 42.5001 76.6875V41.2709C42.5001 40.5554 42.068 39.9073 41.4092 39.6347Z" fill="white"/>
<path d="M49.0627 47.104L41.9793 40.0207C41.2887 39.33 40.1659 39.33 39.4753 40.0207C38.7846 40.7113 38.7846 41.834 39.4753 42.5247L46.5587 49.6081C46.9058 49.9515 47.359 50.1252 47.8124 50.1252C48.2658 50.1252 48.719 49.9517 49.0627 49.6081C49.7533 48.9173 49.7533 47.7947 49.0627 47.104Z" fill="white"/>
</svg>
