<svg width="60" height="60" viewBox="0 0 60 60" fill="none" xmlns="http://www.w3.org/2000/svg">
<circle cx="30" cy="25" r="20" fill="#01CC6E"/>
<path d="M29 16C26.2425 16 24 17.8314 24 20.0833V21.4445C24 22.287 24.3142 23.0703 24.8517 23.7216C22.355 24.8976 20.6667 27.093 20.6667 29.6111V30.2917C20.6667 31.4173 21.7884 32.3333 23.1667 32.3333H30.6667C31.1275 32.3333 31.5001 32.0285 31.5001 31.6528C31.5001 31.2771 31.1275 30.9722 30.6667 30.9722H23.1667C22.7067 30.9722 22.3334 30.6667 22.3334 30.2917V29.6112C22.3334 27.4749 23.8484 25.6231 26.0467 24.7322C26.8759 25.2297 27.895 25.5278 29 25.5278C31.7576 25.5278 34.0001 23.6964 34.0001 21.4445V20.0833C34.0001 17.8314 31.7576 16 29 16ZM32.3334 21.4445C32.3334 22.9457 30.8384 24.1667 29.0001 24.1667C27.1618 24.1667 25.6667 22.9457 25.6667 21.4445V20.0833C25.6667 18.582 27.1617 17.3611 29 17.3611C30.8384 17.3611 32.3334 18.582 32.3334 20.0833L32.3334 21.4445Z" fill="white"/>
<path d="M39.8334 27.5695H36.5001V24.8472C36.5001 24.4716 36.1276 24.1667 35.6668 24.1667C35.206 24.1667 34.8335 24.4716 34.8335 24.8472V27.5695H31.5001C31.0392 27.5695 30.6667 27.8743 30.6667 28.25C30.6667 28.6257 31.0392 28.9305 31.5001 28.9305H34.8334V31.6528C34.8334 32.0284 35.2059 32.3333 35.6667 32.3333C36.1275 32.3333 36.5 32.0284 36.5 31.6528V28.9305H39.8334C40.2942 28.9305 40.6667 28.6257 40.6667 28.25C40.6667 27.8743 40.2943 27.5695 39.8334 27.5695Z" fill="white"/>
<g filter="url(#filter0_d_232_2)">
<circle cx="30" cy="25" r="20" fill="#01CC6E"/>
</g>
<path d="M29 16C26.2425 16 24 17.8314 24 20.0833V21.4445C24 22.287 24.3142 23.0703 24.8517 23.7216C22.355 24.8976 20.6667 27.093 20.6667 29.6111V30.2917C20.6667 31.4173 21.7884 32.3333 23.1667 32.3333H30.6667C31.1275 32.3333 31.5001 32.0285 31.5001 31.6528C31.5001 31.2771 31.1275 30.9722 30.6667 30.9722H23.1667C22.7067 30.9722 22.3334 30.6667 22.3334 30.2917V29.6112C22.3334 27.4749 23.8484 25.6231 26.0467 24.7322C26.8759 25.2297 27.895 25.5278 29 25.5278C31.7576 25.5278 34.0001 23.6964 34.0001 21.4445V20.0833C34.0001 17.8314 31.7576 16 29 16ZM32.3334 21.4445C32.3334 22.9457 30.8384 24.1667 29.0001 24.1667C27.1618 24.1667 25.6667 22.9457 25.6667 21.4445V20.0833C25.6667 18.582 27.1617 17.3611 29 17.3611C30.8384 17.3611 32.3334 18.582 32.3334 20.0833L32.3334 21.4445Z" fill="white"/>
<path d="M39.8334 27.5695H36.5001V24.8472C36.5001 24.4716 36.1276 24.1667 35.6668 24.1667C35.206 24.1667 34.8335 24.4716 34.8335 24.8472V27.5695H31.5001C31.0392 27.5695 30.6667 27.8743 30.6667 28.25C30.6667 28.6257 31.0392 28.9305 31.5001 28.9305H34.8334V31.6528C34.8334 32.0284 35.2059 32.3333 35.6667 32.3333C36.1275 32.3333 36.5 32.0284 36.5 31.6528V28.9305H39.8334C40.2942 28.9305 40.6667 28.6257 40.6667 28.25C40.6667 27.8743 40.2943 27.5695 39.8334 27.5695Z" fill="white"/>
<defs>
<filter id="filter0_d_232_2" x="0" y="0" width="60" height="60" filterUnits="userSpaceOnUse" color-interpolation-filters="sRGB">
<feFlood flood-opacity="0" result="BackgroundImageFix"/>
<feColorMatrix in="SourceAlpha" type="matrix" values="0 0 0 0 0 0 0 0 0 0 0 0 0 0 0 0 0 0 127 0" result="hardAlpha"/>
<feOffset dy="5"/>
<feGaussianBlur stdDeviation="5"/>
<feColorMatrix type="matrix" values="0 0 0 0 0.564706 0 0 0 0 0.564706 0 0 0 0 0.564706 0 0 0 0.35 0"/>
<feBlend mode="normal" in2="BackgroundImageFix" result="effect1_dropShadow_232_2"/>
<feBlend mode="normal" in="SourceGraphic" in2="effect1_dropShadow_232_2" result="shape"/>
</filter>
</defs>
</svg>
