<svg width="81" height="80" viewBox="0 0 81 80" fill="none" xmlns="http://www.w3.org/2000/svg">
<circle cx="40.1857" cy="35" r="30" fill="#01CC6E"/>
<path d="M26.6857 42.8743V48.5H32.3115L48.9113 31.9002L43.2855 26.2744L26.6857 42.8743Z" fill="white"/>
<path d="M53.2469 25.4418L49.7438 21.9388C49.1587 21.3537 48.2061 21.3537 47.621 21.9388L44.8756 24.6842L50.5014 30.31L53.2468 27.5646C53.8319 26.9795 53.8319 26.0269 53.2469 25.4418Z" fill="white"/>
<g filter="url(#filter0_d_237_21)">
<circle cx="40.1857" cy="35" r="30" fill="#01CC6E"/>
</g>
<path d="M26.6857 42.8743V48.5H32.3115L48.9113 31.9002L43.2855 26.2744L26.6857 42.8743Z" fill="white"/>
<path d="M53.2469 25.4418L49.7438 21.9388C49.1587 21.3537 48.2061 21.3537 47.621 21.9388L44.8756 24.6842L50.5014 30.31L53.2468 27.5646C53.8319 26.9795 53.8319 26.0269 53.2469 25.4418Z" fill="white"/>
<defs>
<filter id="filter0_d_237_21" x="0.185669" y="0" width="80" height="80" filterUnits="userSpaceOnUse" color-interpolation-filters="sRGB">
<feFlood flood-opacity="0" result="BackgroundImageFix"/>
<feColorMatrix in="SourceAlpha" type="matrix" values="0 0 0 0 0 0 0 0 0 0 0 0 0 0 0 0 0 0 127 0" result="hardAlpha"/>
<feOffset dy="5"/>
<feGaussianBlur stdDeviation="5"/>
<feColorMatrix type="matrix" values="0 0 0 0 0.564706 0 0 0 0 0.564706 0 0 0 0 0.564706 0 0 0 0.35 0"/>
<feBlend mode="normal" in2="BackgroundImageFix" result="effect1_dropShadow_237_21"/>
<feBlend mode="normal" in="SourceGraphic" in2="effect1_dropShadow_237_21" result="shape"/>
</filter>
</defs>
</svg>
