<svg width="80" height="80" viewBox="0 0 80 80" fill="none" xmlns="http://www.w3.org/2000/svg">
<g filter="url(#filter0_d_249_0)">
<circle cx="40" cy="35" r="30" fill="#F75E49"/>
</g>
<path d="M48.0446 26.3874L46.2203 46.7298H32.8463L31.0224 26.3874L28.7113 26.5856L30.5685 47.2969C30.6663 48.2515 31.5127 49 32.496 49H46.5707C47.5536 49 48.4004 48.2519 48.4997 47.2833L50.3557 26.5856L48.0446 26.3874Z" fill="white"/>
<path d="M43.7866 21H35.28C34.2139 21 33.3466 21.8487 33.3466 22.8919V26.4865H35.6666V23.2702H43.3999V26.4865H45.7199V22.8919C45.72 21.8487 44.8527 21 43.7866 21Z" fill="white"/>
<path d="M51.9066 25.3514H27.16C26.5193 25.3514 26 25.8595 26 26.4865C26 27.1135 26.5193 27.6217 27.16 27.6217H51.9067C52.5474 27.6217 53.0667 27.1135 53.0667 26.4865C53.0667 25.8595 52.5473 25.3514 51.9066 25.3514Z" fill="white"/>
<defs>
<filter id="filter0_d_249_0" x="0" y="0" width="80" height="80" filterUnits="userSpaceOnUse" color-interpolation-filters="sRGB">
<feFlood flood-opacity="0" result="BackgroundImageFix"/>
<feColorMatrix in="SourceAlpha" type="matrix" values="0 0 0 0 0 0 0 0 0 0 0 0 0 0 0 0 0 0 127 0" result="hardAlpha"/>
<feOffset dy="5"/>
<feGaussianBlur stdDeviation="5"/>
<feColorMatrix type="matrix" values="0 0 0 0 0.564706 0 0 0 0 0.564706 0 0 0 0 0.564706 0 0 0 0.35 0"/>
<feBlend mode="normal" in2="BackgroundImageFix" result="effect1_dropShadow_249_0"/>
<feBlend mode="normal" in="SourceGraphic" in2="effect1_dropShadow_249_0" result="shape"/>
</filter>
</defs>
</svg>
